<svg width="588" height="330" viewBox="0 0 588 330" fill="none" xmlns="http://www.w3.org/2000/svg">
<rect x="2" y="154" width="584" height="174" rx="87" stroke="black" stroke-width="4"/>
<path d="M481.229 283.817C475.744 283.817 470.839 282.504 466.513 279.878C462.265 277.251 458.904 273.659 456.433 269.102C454.038 264.467 452.841 259.291 452.841 253.575C452.841 247.782 454.038 242.645 456.433 238.164C458.904 233.607 462.265 230.053 466.513 227.504C470.839 224.878 475.783 223.565 481.345 223.565C485.825 223.565 489.765 224.453 493.164 226.23C496.563 228.006 499.228 230.44 501.159 233.53V199H513.905V282.427H501.159V273.621C499.382 276.247 496.872 278.603 493.627 280.689C490.383 282.775 486.25 283.817 481.229 283.817ZM483.546 272.694C487.022 272.694 490.074 271.883 492.7 270.261C495.404 268.638 497.489 266.398 498.957 263.54C500.502 260.682 501.275 257.399 501.275 253.691C501.275 249.906 500.502 246.584 498.957 243.726C497.489 240.868 495.404 238.666 492.7 237.122C490.074 235.499 487.022 234.688 483.546 234.688C480.147 234.688 477.096 235.499 474.393 237.122C471.766 238.666 469.68 240.868 468.136 243.726C466.591 246.584 465.818 249.867 465.818 253.575C465.818 257.36 466.591 260.682 468.136 263.54C469.68 266.398 471.766 268.638 474.393 270.261C477.096 271.883 480.147 272.694 483.546 272.694Z" fill="black"/>
<path d="M431.183 282.427V224.955H443.928V282.427H431.183ZM430.835 214.758V200.97H444.392V214.758H430.835Z" fill="black"/>
<path d="M391.883 283.817C386.166 283.817 381.029 282.581 376.472 280.11C371.914 277.56 368.284 274.007 365.58 269.449C362.954 264.892 361.64 259.639 361.64 253.691C361.64 247.666 362.954 242.413 365.58 237.933C368.284 233.375 371.914 229.86 376.472 227.388C381.107 224.839 386.244 223.565 391.883 223.565C397.676 223.565 402.813 224.839 407.293 227.388C411.851 229.86 415.443 233.375 418.069 237.933C420.773 242.413 422.125 247.666 422.125 253.691C422.125 259.639 420.773 264.892 418.069 269.449C415.443 274.007 411.851 277.56 407.293 280.11C402.736 282.581 397.599 283.817 391.883 283.817ZM391.767 272.81C394.934 272.81 397.792 272.114 400.341 270.724C402.968 269.256 405.053 267.132 406.598 264.351C408.143 261.493 408.916 257.94 408.916 253.691C408.916 249.442 408.143 245.928 406.598 243.147C405.053 240.289 402.968 238.164 400.341 236.774C397.792 235.306 395.011 234.572 391.999 234.572C388.909 234.572 386.051 235.306 383.424 236.774C380.798 238.164 378.712 240.289 377.167 243.147C375.622 245.928 374.85 249.442 374.85 253.691C374.85 257.94 375.622 261.493 377.167 264.351C378.712 267.132 380.759 269.256 383.308 270.724C385.935 272.114 388.754 272.81 391.767 272.81Z" fill="black"/>
<path d="M325.946 282.427V224.955H338.692V233.877C340.082 230.942 341.936 228.663 344.253 227.041C346.571 225.341 349.274 224.492 352.364 224.492H360.359V235.963H351.09C348.463 235.963 346.223 236.697 344.369 238.164C342.515 239.555 341.086 241.756 340.082 244.769C339.155 247.782 338.692 251.605 338.692 256.24V282.427H325.946Z" fill="black"/>
<path d="M281.85 283.817C276.365 283.817 271.46 282.504 267.134 279.878C262.885 277.251 259.525 273.659 257.053 269.102C254.659 264.467 253.461 259.291 253.461 253.575C253.461 247.782 254.659 242.645 257.053 238.164C259.525 233.607 262.885 230.053 267.134 227.504C271.46 224.878 276.404 223.565 281.966 223.565C286.446 223.565 290.385 224.453 293.784 226.23C297.183 228.006 299.848 230.44 301.779 233.53V199H314.525V282.427H301.779V273.621C300.003 276.247 297.492 278.603 294.248 280.689C291.003 282.775 286.871 283.817 281.85 283.817ZM284.167 272.694C287.643 272.694 290.694 271.883 293.321 270.261C296.025 268.638 298.11 266.398 299.578 263.54C301.123 260.682 301.895 257.399 301.895 253.691C301.895 249.906 301.123 246.584 299.578 243.726C298.11 240.868 296.025 238.666 293.321 237.122C290.694 235.499 287.643 234.688 284.167 234.688C280.768 234.688 277.717 235.499 275.013 237.122C272.387 238.666 270.301 240.868 268.756 243.726C267.211 246.584 266.439 249.867 266.439 253.575C266.439 257.36 267.211 260.682 268.756 263.54C270.301 266.398 272.387 268.638 275.013 270.261C277.717 271.883 280.768 272.694 284.167 272.694Z" fill="black"/>
<path d="M211.539 283.817C207.058 283.817 203.235 283.045 200.067 281.5C196.978 279.878 194.621 277.754 192.999 275.127C191.454 272.501 190.682 269.643 190.682 266.553C190.682 260.45 192.883 255.738 197.287 252.416C201.69 249.095 207.483 247.434 214.667 247.434C217.912 247.434 220.808 247.704 223.357 248.245C225.907 248.709 227.992 249.211 229.614 249.751V247.086C229.614 242.606 228.379 239.284 225.907 237.121C223.512 234.959 220.306 233.877 216.289 233.877C213.277 233.877 210.612 234.495 208.294 235.731C205.977 236.967 204.509 239.13 203.891 242.22H191.609C192.072 238.048 193.463 234.611 195.78 231.907C198.175 229.126 201.149 227.041 204.702 225.65C208.256 224.26 212.118 223.565 216.289 223.565C224.632 223.565 231.044 225.65 235.524 229.822C240.081 233.993 242.36 239.748 242.36 247.086V262.15C242.36 265.085 242.515 267.209 242.824 268.522C243.21 269.836 243.789 270.685 244.562 271.072C245.412 271.381 246.532 271.535 247.922 271.535H248.501V282.427H245.721C241.858 282.427 238.614 281.848 235.987 280.689C233.438 279.53 231.662 277.213 230.657 273.737C228.803 276.595 226.293 278.989 223.126 280.921C219.959 282.852 216.096 283.817 211.539 283.817ZM214.088 273.853C217.023 273.853 219.534 273.157 221.619 271.767C223.705 270.299 225.366 268.407 226.602 266.089C227.915 263.695 228.726 261.145 229.035 258.442C227.336 257.978 225.327 257.515 223.01 257.051C220.692 256.588 218.336 256.356 215.942 256.356C211.848 256.356 208.758 257.206 206.672 258.905C204.586 260.605 203.544 262.845 203.544 265.626C203.544 268.02 204.471 269.99 206.324 271.535C208.178 273.08 210.766 273.853 214.088 273.853Z" fill="black"/>
<path d="M168.097 282.427V199H180.843V282.427H168.097Z" fill="black"/>
<path d="M143.542 282.427V199H156.288V282.427H143.542Z" fill="black"/>
<path d="M104.242 283.817C98.526 283.817 93.3891 282.581 88.8315 280.11C84.2739 277.56 80.6433 274.007 77.9396 269.449C75.3132 264.892 74 259.639 74 253.691C74 247.666 75.3132 242.413 77.9396 237.933C80.6433 233.375 84.2739 229.86 88.8315 227.388C93.4663 224.839 98.6032 223.565 104.242 223.565C110.036 223.565 115.173 224.839 119.653 227.388C124.211 229.86 127.803 233.375 130.429 237.933C133.133 242.413 134.485 247.666 134.485 253.691C134.485 259.639 133.133 264.892 130.429 269.449C127.803 274.007 124.211 277.56 119.653 280.11C115.096 282.581 109.959 283.817 104.242 283.817ZM104.126 272.81C107.294 272.81 110.152 272.114 112.701 270.724C115.327 269.256 117.413 267.132 118.958 264.351C120.503 261.493 121.275 257.94 121.275 253.691C121.275 249.442 120.503 245.928 118.958 243.147C117.413 240.289 115.327 238.164 112.701 236.774C110.152 235.306 107.371 234.572 104.358 234.572C101.268 234.572 98.4101 235.306 95.7837 236.774C93.1573 238.164 91.0716 240.289 89.5267 243.147C87.9817 245.928 87.2093 249.442 87.2093 253.691C87.2093 257.94 87.9817 261.493 89.5267 264.351C91.0716 267.132 93.1187 269.256 95.6678 270.724C98.2943 272.114 101.114 272.81 104.126 272.81Z" fill="black"/>
<path d="M350.547 13.4759C349.592 10.3188 349.535 7.05527 348.941 3.83963C348.671 2.37822 347.488 0.153694 345.824 0.0180413C341 -0.375365 337.794 5.75333 337.049 9.78087C336.085 14.9881 336.886 18.9726 339.784 23.3173C337.28 25.8129 337.041 27.8759 337.962 31.1451C335.468 33.9323 335.239 37.0268 337.187 40.2555C335.519 43.8646 336.027 46.5561 338.612 49.5241C338.777 51.6411 339 52.4027 340.188 54.1488C338.217 57.3285 338.431 59.4231 340.132 62.6266C338.11 65.5147 338.213 67.6917 339.597 70.8027C338.179 72.7143 337.811 73.6859 337.502 76.0476C335.107 76.2206 334.325 76.5538 332.407 77.9679C329.052 76.5754 326.783 77.0534 323.898 79.1661C319.899 78.1714 317.684 79.2143 315.072 82.2445C314.531 82.33 314.196 82.4153 313.665 82.5565C309.578 79.0665 303.968 79.4518 301.911 84.9807C298.3 87.2861 297.217 91.1239 298.548 95.1897C299.304 97.4987 300.846 98.8692 303.012 99.9078C301.42 103.373 301.772 105.74 303.452 109.054C302.123 112.784 302.642 116.103 305.166 119.132C304.248 122.614 304.114 125.033 306.188 128.109C306.168 128.467 306.15 128.827 306.134 129.185C305.989 132.458 306.67 133.777 308.825 136.134C308.995 141.205 309.146 148.064 312.129 152.38C314.083 155.208 321.565 156.198 321.762 151.48C321.832 149.835 320.681 148.103 320.484 146.562C320.128 143.764 320.213 140.685 320.365 137.859C321.276 137.267 322.196 136.359 322.964 135.602C323.27 140.201 323.574 146.286 326.403 150.099C328.871 153.427 337.29 153.197 335.366 147.322C334.906 145.917 334.222 144.61 334.169 143.11C334.022 140.856 334.226 138.706 334.435 136.462C337.162 135.121 337.971 133.233 338.925 130.598C339.542 132.014 339.88 132.48 340.93 133.594C341.095 136.767 341.659 137.916 344.232 139.884C344.286 145.433 344.063 156.365 351.286 157.277C353.716 157.585 357.017 156.919 357.068 153.908C357.094 152.277 355.994 150.821 355.698 149.257C355.398 146.403 355.684 142.942 355.881 140.088C357.392 138.753 357.779 138.217 358.737 136.452L360.026 137.699C360.209 142.112 360.372 148.41 362.907 152.291C364.767 155.137 371.856 155.962 372.573 151.694C372.856 150.014 371.426 148.179 371.237 146.548C370.891 143.554 371.368 140.272 371.664 137.248C374.614 134.993 375.212 132.627 375.006 129.046C377.816 126.358 378.072 123.802 377.607 120.11C379.953 117.934 380.445 116.697 380.598 113.577C384.678 110.537 385.092 106.599 383.314 102.079C385.846 98.9034 386.017 95.6659 384.635 91.9434C387.413 90.4032 388.069 89.5799 389.181 86.6047C392.638 85.2827 393.802 83.5152 394.127 79.8866C396.688 77.9672 397.333 76.5369 397.326 73.3379C400.788 70.116 401.677 67.8414 400.926 63.1143C401.957 60.9562 402.188 60.9094 402.83 58.4544C403.169 59.3309 403.554 60.1905 403.944 61.0446C405.364 64.1519 406.687 67.324 408.143 70.4126C411.639 77.8277 412.765 84.37 422.537 82.5839C422.626 90.3361 422.561 98.2574 422.556 106.02L422.55 115.101C422.546 121.44 421.681 127.428 428.442 130.676C430.821 131.751 432.525 131.631 435.071 131.618C435.128 135.438 435.036 139.276 435.064 143.098C435.075 144.688 435.023 146.112 435.408 147.674C435.792 149.29 436.599 150.777 437.744 151.98C439.507 153.81 441.786 154.655 444.304 154.696C446.797 154.735 449.085 154.044 450.883 152.273C452.097 151.076 453.012 149.634 453.493 147.996C454.368 145.011 453.964 135.297 453.99 131.621L462.04 131.649L461.996 139.811C461.985 142.402 461.801 145.166 462.378 147.722C463.993 154.869 472.982 157.066 478.075 152.065C481.491 148.71 480.92 144.444 480.909 140.01L480.903 131.674C484.686 131.485 487.459 131.644 490.367 128.747C493.972 125.156 493.583 120.997 493.579 116.432L493.566 105.64L493.565 67.6162L426.461 67.5896C426.081 66.989 425.859 66.4004 425.587 65.7484L469.946 65.7486C477.529 65.7505 486.005 65.941 493.537 65.7176C493.694 63.9827 493.556 60.5062 493.264 58.8767C491.461 48.8216 487.043 41.9639 479.01 36.01C480.402 33.4967 482.01 31.0771 483.357 28.5435C483.926 27.3554 484.522 26.1923 484.151 24.8464C483.549 21.7069 479.428 20.54 477.465 23.1522C475.519 25.741 473.614 29.3634 472.008 32.2083C463.704 28.5065 454.347 28.4841 445.831 31.4699C444.334 28.8258 442.917 26.04 441.304 23.4827C439.558 20.8615 435.57 21.1367 434.45 24.1393C433.617 26.3702 434.952 28.3776 435.971 30.2676C436.824 31.8506 437.734 33.4061 438.532 35.0282C437.689 35.5966 436.864 36.1911 436.058 36.8109C428.636 42.583 423.961 50.2958 422.787 59.6869C420.899 56.1683 419.118 51.5034 417.323 47.8654C416.427 46.0531 415.769 44.0462 414.596 42.3852C411.436 37.9113 406.585 37.3343 402.195 40.2936C401.192 38.8125 400.882 39.5862 399.699 38.7129C395.753 35.8018 393.104 44.6054 392.18 47.2671C388.934 49.5689 387.311 52.2731 386.807 56.2541C383.393 58.1951 382.552 59.381 382.037 63.2867L380.909 63.8238C380.54 62.9552 380.336 62.5164 379.863 61.7057C381.399 58.9517 381.22 56.7349 379.812 53.9811C381.888 51.8287 382.102 50.6868 382.161 47.812C385.415 44.8767 385.176 41.407 382.959 37.9404C384.904 34.5901 384.078 31.5213 381.528 28.8429C382.54 25.8678 382.047 24.6701 380.725 21.9839C381.885 20.1229 382.383 18.6908 382.935 16.5601C384.349 11.0964 382.287 1.47185 375.925 0.0402091C374.288 -0.0409799 372.727 1.0797 372.282 2.56644C371.199 6.19385 370.898 9.85332 369.71 13.517C366.68 10.4101 363.812 9.94134 360.009 12.2097C356.489 9.8865 353.469 10.7555 350.547 13.4759Z" fill="black"/>
<path d="M345.416 2.75871C343.876 2.7957 342.522 4.19403 341.758 5.44669C339.18 9.67448 338.727 15.2585 340.813 19.7721C341.398 21.0385 343.456 22.9919 343.696 24.0639C343.336 24.5304 342.102 25.1094 341.622 25.5308C338.75 27.5744 341.382 30.1155 341.018 31.9835C340.895 32.615 338.119 34.3972 338.585 36.7162C338.956 38.5626 340.108 38.8389 340.156 40.4588C340.184 41.3611 338.885 42.5064 338.917 43.5226C338.837 45.886 340.284 46.9638 341.624 48.457C341.282 51.6108 341.762 51.414 343.435 53.6128C343.898 54.2222 342.327 55.8561 341.947 56.6318C340.748 59.0726 342.225 60.3903 343.34 62.3539C343.831 63.2676 341.198 64.9481 341.36 66.8231C341.544 68.929 341.754 68.8138 342.733 70.7106C343.25 71.7106 340.866 73.408 340.662 74.3834C340.101 75.9307 341.144 77.5512 340.42 78.8038C339.796 79.2727 338.532 78.9791 337.725 78.9718C334.731 78.9444 334.661 79.6901 332.849 81.3543C328.861 79.4688 328.06 79.0406 324.506 82.3896C323.016 81.9726 321.766 81.2728 320.097 81.7605C318.327 82.2776 317.624 83.4805 316.793 84.9456C315.946 84.9841 315.273 85.0283 314.593 85.2398C311.805 86.1069 311.712 88.2728 311.099 90.2107C310.969 90.6185 308.298 91.3798 307.766 93.0732C306.992 95.5368 307.166 96.1067 307.976 98.3663C306.959 99.6849 305.433 100.594 304.964 102.502C304.305 105.181 305.422 106.769 306.631 108.845C304.853 112.821 305.03 115.135 308.094 118.172C309.015 119.085 307.441 120.604 307.338 121.954C307.142 124.514 307.729 125.449 309.26 127.483C308.844 129.811 308.538 132.794 311.133 134.211C312.307 134.852 313.453 134.589 314.669 134.216C317.277 136.048 319.836 136.168 321.067 132.542C321.271 131.943 321.024 131.471 321.434 130.848C322.123 129.801 323.025 129.694 323.91 128.962C324.903 127.843 324.601 125.125 324.481 123.736C325.273 122.29 326.202 120.431 325.852 118.755C325.677 117.919 324.929 115.398 326.532 115.4C329.202 116.868 328.183 121.608 327.363 123.911C329.507 124.898 330.408 124.61 332.595 124.076C334.137 125.624 335.191 126.784 337.548 126.837C338.124 126.851 338.332 126.769 338.708 126.395C339.009 125.344 337.786 123.658 337.593 122.424C337.379 121.055 337.075 117.967 339.013 117.768C339.731 118.028 340.032 118.46 339.93 119.221C339.348 121.974 340.564 123.356 341.788 125.527C341.145 129.385 341.073 129.61 343.855 132.448C343.567 135.235 344.424 138.141 347.905 137.889C348.503 137.846 349.242 137.532 349.817 137.319C352.76 138.906 355.438 138.105 356.371 134.656C356.646 133.64 356.504 132.647 356.42 131.606C358.828 129.368 358.939 128.456 358.083 125.325C358.765 124.28 359.641 123.178 359.958 121.953C360.3 120.632 359.818 119.289 361.025 118.422C361.26 118.382 361.39 118.309 361.59 118.418C363.844 119.643 361.608 124.349 361.041 125.717C363.236 125.116 363.693 124.576 365.31 123.06C370.8 123.099 368.987 121.876 371.994 119.241C372.289 118.983 374.358 118.978 375.257 118.393C378.606 116.973 377.138 113.572 378.042 111.977C378.9 110.465 381.705 110.21 381.563 106.538C381.478 104.298 380.678 103.724 380.219 101.662C380.104 101.149 382.612 98.8375 382.461 97.9711C382.813 96.5627 382.803 94.0751 381.961 92.8858C379.833 89.9612 380.28 90.0777 381.596 87.0277C383.047 83.6642 380.089 81.2138 378.926 78.9301C380.507 75.5691 380.725 73.5891 377.973 71.1266C376.682 69.971 378.472 68.0467 378.564 66.8039C378.708 64.8386 377.429 63.3074 376.249 61.8477C376.75 60.8779 377.627 60.1744 377.946 59.2204C378.896 56.377 376.844 55.6688 376.188 53.6532C375.935 52.8784 377.726 52.1446 378.246 51.5551C379.505 50.129 379.29 48.3849 379.197 46.6211C380.064 45.9852 380.891 45.3944 381.425 44.4279C383.001 41.5827 380.541 40.4972 380.014 38.4417C379.777 37.516 380.26 36.9678 380.701 36.2205C382.914 32.4687 378.507 30.4926 378.435 29.6357C378.304 28.0747 379.65 27.0157 379.012 24.8434C378.187 22.0248 376.841 23.0442 375.039 21.9667C374.147 21.4343 374.374 20.0354 374.102 19.1243C373.056 15.6143 369.385 17.8259 368.272 17.0595C367.374 16.4406 367.569 14.8012 366.082 14.0278C363.099 12.4762 362.238 14.7641 360.149 15.4359C358.116 15.2973 357.915 12.9205 354.861 13.7775C352.017 14.5752 352.172 18.2285 350.648 18.7326C346.895 18.1269 347.147 5.00819 345.416 2.75871Z" fill="white"/>
<path d="M373.888 25.2825C372.457 25.5129 372.735 27.1425 371.337 28.1545C369.127 29.7539 368.112 26.7399 366.939 26.5527C366.544 26.8189 366.102 28.042 365.668 28.6325C365.017 29.53 364.02 30.1132 362.918 30.2399C359.465 30.6486 359.273 28.3007 357.972 27.2395C357.173 27.0769 356.418 28.0147 355.574 28.4993C352.655 30.1766 351.615 26.4906 350.315 26.137C349.303 26.6081 349.857 28.5839 348.256 29.9133C346.432 31.4287 345.249 30.1174 344.224 30.8787C343.806 31.9633 345.096 33.1956 345.071 34.8332C345.041 36.8661 344.466 38.251 344.201 40.1935C344.043 41.3445 345.544 41.3885 346.327 42.2485C347.158 43.1622 347.327 43.9764 347.275 45.2104L347.268 45.3819C347.175 45.8278 346.99 46.3948 346.859 46.8417C348.161 47.4546 348.888 48.1822 350.016 49.0643C351.981 50.6003 354.368 51.7244 356.785 52.3353C364.872 54.3792 376.286 51.3328 377.664 41.8536C377.818 40.783 377.505 39.5283 377.532 38.4513C377.567 37.0101 377.837 35.5591 377.632 34.1159C377.505 33.1036 377.011 31.7122 377.063 30.7495C377.086 30.6724 377.109 30.5954 377.13 30.5182C377.158 29.5357 375.008 29.39 374.538 28.613C373.63 27.1122 375.257 26.7505 373.888 25.2825Z" fill="black"/>
<path d="M373.001 29.4023C370.913 30.6207 369.585 30.6401 367.455 29.5461C363.866 32.8642 361.009 33.2509 357.365 29.717C354.846 31.146 353.375 31.0325 350.955 29.5213C349.641 31.3914 348.742 32.1315 346.513 32.5891C347.055 35.3355 346.683 37.1259 346.115 39.8094C350.159 42.2653 348.498 45.0626 349.355 46.2094C354.799 51.0607 361.355 52.3993 368.397 50.0658C371.266 49.1155 373.845 46.9024 375.115 44.1689C376.108 42.0316 375.864 40.4783 375.741 38.227C375.794 34.8474 376.259 34.5362 375.027 31.26C374.113 30.5859 373.732 30.2447 373.001 29.4023Z" fill="white"/>
<path d="M367.227 37.9945C365.689 37.8338 364.871 39.109 363.842 40.134C362.994 39.3765 361.153 37.4759 360.006 38.2757C359.198 39.829 361.798 40.6155 362.866 41.7322C362.99 43.1925 363.063 44.6407 361.137 45.0196C359.802 45.282 359.212 43.407 358.228 42.6924C357.616 42.6153 357.224 43.0102 357.197 43.6297C357.16 44.412 357.889 45.2232 358.41 45.7532C360.339 47.1043 361.95 46.912 363.846 45.6197C368.531 48.505 371.251 42.6295 368.506 42.6722C367.909 42.967 367.745 43.9055 367.294 44.2547C364.891 46.1107 364.687 43.0316 364.871 41.4951C366.061 40.5425 367.864 39.6544 367.227 37.9945Z" fill="black"/>
<path d="M352.565 33.534C351.6 33.2155 350.538 33.443 349.788 34.129C349.04 34.8151 348.719 35.8524 348.951 36.8418C349.183 37.831 349.931 38.6177 350.908 38.8987C352.377 39.3219 353.916 38.4906 354.367 37.0291C354.819 35.5676 354.018 34.0136 352.565 33.534Z" fill="black"/>
<path d="M373.086 33.0537C371.618 32.6057 370.064 33.4297 369.612 34.8963C369.159 36.3629 369.977 37.9196 371.442 38.3775C372.914 38.8376 374.481 38.014 374.936 36.5404C375.39 35.0668 374.562 33.5039 373.086 33.0537Z" fill="black"/>
<path d="M344.053 6.5323C341.924 6.53293 341.155 10.6468 341.008 12.2977C340.66 16.2214 341.662 18.9693 344.138 21.9754L344.247 22.0808C344.751 22.5583 345 22.7928 345.705 22.77C345.901 22.6441 346.229 22.4374 346.224 22.1531C346.205 20.8607 345.544 19.3265 345.377 17.9965C344.938 14.5329 346.087 9.57353 344.053 6.5323Z" fill="black"/>
<path d="M490.499 70.4863L425.391 70.4837L425.386 105.816L425.37 116.624C425.371 120.514 424.792 123.602 427.54 126.686C430.752 129.45 434.455 128.76 438.446 128.758L452.081 128.75L473.603 128.738C476.927 128.734 480.264 128.781 483.585 128.742C485.574 128.672 487.34 127.848 488.653 126.371C491.427 123.251 490.763 117.545 490.766 113.557L490.77 99.4265L490.771 80.4109C490.773 77.6638 490.915 73.282 490.744 70.6319L490.499 70.4863Z" fill="white"/>
<path d="M480.804 24.57C480.648 24.5593 480.5 24.5448 480.343 24.5533C479.101 24.6202 475.046 33.0561 473.961 34.4172C473.62 34.8457 473.17 35.2722 472.585 35.2575C471.233 35.2234 468.562 33.8632 467.1 33.4034C465.813 32.9986 464.416 32.7638 463.081 32.5604C458.639 31.8834 453.763 32.0216 449.414 33.2655C448.093 33.6432 446.469 34.5483 445.139 34.6428C444.664 34.6765 444.304 34.3324 444.019 33.992C442.453 32.1229 440.34 26.2513 438.658 24.8843C438.354 24.6369 438.08 24.5364 437.684 24.5863C437.41 24.749 437.251 24.881 437.116 25.168C436.474 26.5337 441.472 33.8684 442.151 35.8205L442.212 35.9983C441.198 36.8925 439.019 38.0582 437.763 39.0308C430.602 44.577 426.888 51.5016 425.596 60.2831C425.461 61.2054 425.427 62.0138 425.379 62.9457L490.803 62.9657C490.762 62.1293 490.693 61.2945 490.596 60.4626C489.701 52.9558 486.172 45.9544 480.591 40.8048C478.831 39.1812 477.172 38.294 475.372 36.8708C475.38 36.8505 475.389 36.8304 475.396 36.8098C476.226 34.5377 481.644 26.9225 481.448 25.4491C481.391 25.027 481.108 24.8265 480.804 24.57Z" fill="white"/>
<path d="M470.981 43.7412C469.079 43.3441 467.216 44.5689 466.827 46.4727C466.439 48.3764 467.671 50.2336 469.577 50.6144C471.471 50.9928 473.314 49.7691 473.701 47.8768C474.087 45.9846 472.872 44.1359 470.981 43.7412Z" fill="black"/>
<path d="M442.933 43.7614C441.703 43.4815 440.417 43.8845 439.567 44.8166C438.716 45.7487 438.433 47.066 438.824 48.2656C439.215 49.4652 440.221 50.3618 441.457 50.6134C443.339 50.9961 445.178 49.7939 445.582 47.917C445.986 46.04 444.805 44.1873 442.933 43.7614Z" fill="black"/>
<path d="M408.305 41.313C407.701 41.2702 407.063 41.2502 406.465 41.3705C404.911 41.6965 403.556 42.6404 402.712 43.9855C400.205 47.9787 402.981 52.1707 404.702 55.9113L408.614 64.5713C409.892 67.4451 411.188 70.3114 412.501 73.1701C413.715 75.82 414.28 78.0318 416.945 79.5643C417.255 79.6844 417.569 79.7958 417.886 79.8985C418.796 80.1877 422.348 80.3305 422.479 79.1091C422.868 75.4756 422.072 71.1455 422.864 67.5857C423.025 66.8624 420.804 62.3829 420.33 61.3468L416.678 53.3008C415.324 50.3457 414.021 47.3183 412.556 44.4175C411.655 42.6349 410.209 41.7714 408.305 41.313Z" fill="white"/>
<path d="M394.741 49.5428C392.232 49.4429 390.297 53.2117 389.876 55.1871C389.248 58.136 389.837 58.385 386.857 59.4514C385.995 59.7599 385.076 61.3887 385.037 62.2915C385.004 63.0285 385.092 64.1175 384.914 64.8484C384.641 65.709 383.149 65.8588 382.578 66.189C381.319 66.9169 381.023 68.4879 380.668 69.7498C382.94 72.6585 383.282 75.2119 382.091 78.6572C384.666 81.9479 385.203 85.3097 383.749 89.2443C384.134 89.0594 384.419 88.8554 384.772 88.6198C386.719 86.7921 385.738 86.3678 386.948 84.5527C387.457 83.7885 389.474 83.8033 390.249 82.949C391.347 81.7373 391.332 80.0688 391.328 78.5793C392.274 77.7623 393.245 77.3703 394.023 76.1668C394.962 74.7113 394.565 74.7312 394.328 73.3344C393.926 70.9529 396.463 70.9688 397.494 69.1523C398.764 66.9135 398.379 64.8042 397.867 62.5067C398.908 60.6899 399.646 59.901 400.171 57.6766C400.764 55.1726 400.782 53.6744 399.425 51.3902C397.779 50.6241 396.51 50.0186 394.741 49.5428Z" fill="white"/>
<path d="M478.115 131.645C473.791 131.556 469.242 131.616 464.901 131.609C464.84 134.447 464.83 137.384 464.867 140.22C464.913 143.793 464.21 147.182 466.77 150.026C470.594 153.544 476.703 152.027 477.855 146.864C478.284 144.942 478.091 141.856 478.084 139.822L478.115 131.645Z" fill="white"/>
<path d="M451.072 131.646C446.756 131.573 442.284 131.626 437.955 131.617L437.941 140.612C437.939 144.084 437.359 147.472 439.965 150.141C443.779 153.555 449.769 151.869 450.919 146.74C451.299 145.046 451.105 142.656 451.1 140.876L451.072 131.646Z" fill="white"/>
<path d="M374.974 121.602C374.429 121.693 373.884 121.792 373.341 121.896C371.694 124.361 369.507 126.191 366.343 125.833C364.485 127.461 363.883 127.749 361.436 128.237C361.17 130.038 360.814 130.672 359.921 132.264C360.194 133.475 360.457 134.021 361.307 134.899C363.247 136.306 364.205 135.675 366.101 134.662C367.996 135.436 369.836 135.632 371.265 133.777C372.567 132.086 372.312 130.045 372.067 128.062C374.224 125.895 375.157 124.851 374.974 121.602Z" fill="white"/>
<path d="M308.889 83.1222C306.003 82.8922 304.925 84.2792 304.321 86.8593C303.563 87.2924 302.323 87.9333 301.849 88.6224C299.851 91.5191 300.701 94.9136 303.337 96.8958L304.638 97.5494C304.241 92.8718 304.811 91.072 308.716 88.2513C309.232 86.2184 309.664 85.3744 311.184 83.9428C310.272 83.4866 309.856 83.3599 308.889 83.1222Z" fill="white"/>
<path d="M327.742 127.089L327.648 127.071C327.296 127.195 327.137 128.377 326.947 128.913C326.373 130.539 325.246 131.492 323.899 132.431C325.57 134.748 327.289 134.041 329.448 132.999C330.103 133.355 330.608 133.597 331.287 133.901C334.331 134.378 335.686 132.206 336.118 129.526C334.135 128.905 333.53 128.591 331.955 127.236C330.361 127.409 329.299 127.36 327.742 127.089Z" fill="white"/>
<path d="M314.317 137.416C313.418 137.446 312.579 137.441 311.679 137.429C311.802 139.246 312.068 145.285 313.04 146.98C313.237 147.322 314.743 147.357 315.26 147.386C316.147 147.457 316.885 147.365 317.77 147.285C317.232 144.628 317.4 141.156 317.514 138.439C316.021 138.241 315.651 138.107 314.317 137.416Z" fill="white"/>
<path d="M349.613 140.387C348.688 140.638 347.957 140.697 347.011 140.733C347.088 143.139 347.297 147.56 348.04 149.755C348.84 149.892 349.645 149.913 350.456 149.955C351.282 149.936 352.152 149.881 352.981 149.842C352.524 147.016 352.852 143.764 353.029 140.877C351.55 140.937 351.043 140.77 349.613 140.387Z" fill="white"/>
<path d="M366.399 137.85C365.323 137.963 364.96 138.563 362.9 138.602C362.983 140.302 363.257 145.655 363.827 146.94C364.168 147.211 364.503 147.175 364.952 147.206C366.192 147.205 367.214 147.2 368.459 147.103C368.143 143.754 368.553 141.423 368.744 138.129C367.763 138.084 367.345 138.076 366.399 137.85Z" fill="white"/>
<path d="M375.816 2.7616L375.368 2.86711C375 3.17642 374.717 3.75487 374.636 4.21262C374.011 7.78418 373.471 10.9493 372.316 14.4014C373.619 14.8505 374.009 15.1308 375.082 15.9203C375.234 14.0889 375.215 7.27931 376.891 6.56267C378.297 6.63487 379.047 9.64013 379.306 10.7849C379.867 14.3778 379.346 16.7174 377.433 19.8365L378.543 20.2418C378.766 19.8314 378.976 19.4146 379.173 18.9918C380.811 15.3753 380.964 11.261 379.601 7.53225C378.906 5.66389 377.697 3.61947 375.816 2.7616Z" fill="white"/>
<path d="M329.503 136.157C329.156 136.134 327.4 136.711 325.799 136.671C325.95 139.024 326.241 141.868 326.853 144.173C326.968 144.606 327.202 144.634 327.536 144.776C328.971 144.823 330.087 144.823 331.52 144.768C331.305 141.647 331.361 139.783 331.62 136.729C330.719 136.567 330.370 136.456 329.503 136.157Z" fill="white"/>
<path d="M503.915 68.9625C501.483 69.0595 499.692 69.6747 497.814 71.2537C494.018 74.4437 494.815 79.8989 494.823 84.3596L494.818 95.7052L494.806 103.856C494.805 105.205 494.739 106.688 494.865 108.023C495.349 113.137 498.811 116.056 503.748 116.351C506.234 116.239 507.848 115.735 509.775 114.133C513.612 110.945 512.96 105.823 512.955 101.4L512.956 90.5007L512.964 81.9579C512.966 78.3711 513.271 74.9681 510.647 72.068C508.755 69.9776 506.701 69.136 503.915 68.9625Z" fill="black"/>
<path d="M504.068 71.7465C501.489 71.7177 498.986 73.2564 498.1 75.6501C497.411 77.5092 497.616 80.8324 497.617 82.8633L497.62 92.5438L497.608 102.471C497.604 107.472 496.94 112.68 503.533 113.619C505.113 113.535 506.125 113.303 507.454 112.333C510.769 109.916 510.084 105.501 510.1 101.8C510.141 98.5855 510.163 95.3708 510.166 92.1562L510.176 83.2067C510.177 81.3893 510.223 79.5602 510.075 77.7449C509.797 74.3372 507.475 72.1057 504.068 71.7465Z" fill="white"/>
<path d="M403.996 22.1809C403.914 22.1721 403.832 22.162 403.749 22.1546C403.291 22.1141 402.815 22.1401 402.473 22.4922C401.851 23.1323 402.029 28.7332 402.101 29.8772C402.148 30.6165 402.335 30.8205 402.87 31.2946L403.1 31.2962C405.112 31.292 404.964 29.3589 404.854 27.8075C404.723 25.9623 405.416 23.3902 403.996 22.1809Z" fill="black"/>
<path d="M393.902 26.6042C388.684 26.0679 395.88 32.747 396.959 33.5452C401.923 33.7667 394.921 27.4547 393.902 26.6042Z" fill="black"/>
<path d="M414.162 26.6133C412.536 26.4375 411.228 28.4309 410.098 29.5054C409.004 30.543 407.255 32.1851 408.897 33.5131C410.409 33.7186 411.777 31.789 412.797 30.7732C413.930 29.6456 415.824 28.0143 414.162 26.6133Z" fill="black"/>
</svg>
